<?xml version="1.0" standalone="no"?>
<!DOCTYPE svg PUBLIC "-//W3C//DTD SVG 20010904//EN"
 "http://www.w3.org/TR/2001/REC-SVG-20010904/DTD/svg10.dtd">
<svg version="1.0" xmlns="http://www.w3.org/2000/svg"
 width="700.000000pt" height="700.000000pt" viewBox="0 0 700.000000 700.000000"
 preserveAspectRatio="xMidYMid meet">
<metadata>
Created by potrace 1.11, written by Peter Selinger 2001-2013
</metadata>
<g transform="translate(0.000000,700.000000) scale(0.100000,-0.100000)"
fill="#000000" stroke="none">
<path d="M3335 6993 c-16 -2 -65 -11 -108 -19 -42 -8 -88 -17 -100 -20 -101
-18 -301 -116 -396 -192 -197 -161 -284 -354 -277 -617 5 -152 4 -147 91 -415
98 -302 101 -313 120 -405 48 -227 14 -380 -107 -489 -125 -113 -325 -188
-878 -328 -489 -123 -658 -173 -869 -258 -400 -161 -641 -367 -749 -640 -59
-149 -60 -154 -61 -1144 -1 -893 -1 -910 19 -950 73 -148 347 -151 423 -3 18
35 19 61 19 500 l0 464 237 -1 236 -1 1 -465 c1 -505 0 -497 58 -547 52 -45
88 -57 171 -57 63 -1 88 4 120 21 47 25 90 68 103 104 6 15 10 192 11 430 0
222 0 429 0 460 l1 56 228 -2 c125 -1 230 -3 233 -4 4 0 7 -207 7 -458 0 -307
4 -467 11 -486 47 -121 245 -164 371 -81 30 20 90 102 82 112 -1 1 -2 208 -2
460 l0 459 237 -1 237 -1 1 -465 c1 -521 -1 -510 73 -561 118 -83 308 -50 369
64 15 29 17 79 19 492 1 253 2 462 3 465 1 3 107 6 236 6 l235 0 1 -458 c1
-252 3 -462 4 -468 1 -5 3 -16 4 -23 2 -21 74 -89 111 -105 19 -8 64 -16 100
-18 99 -5 191 43 223 116 7 17 11 181 12 490 l1 465 237 1 237 0 0 -463 c0
-504 -1 -491 57 -544 44 -42 91 -61 158 -65 74 -4 116 7 170 44 78 54 77 44
79 565 l1 462 235 0 235 0 1 -460 c2 -509 2 -510 65 -558 55 -41 100 -55 175
-53 74 2 140 28 176 70 48 54 48 58 48 544 l0 459 233 -2 c127 -1 234 -3 237
-3 3 -1 5 -205 5 -454 0 -485 1 -496 52 -550 42 -44 88 -61 173 -62 89 -1 149
24 196 82 l29 37 2 930 c1 979 2 967 -44 1115 -9 30 -32 84 -51 120 -159 302
-490 513 -1077 685 -120 35 -541 145 -695 180 -67 16 -226 63 -325 96 -245 82
-392 178 -447 290 -73 150 -56 310 77 712 103 311 114 368 111 536 -3 145 -20
221 -73 326 -89 175 -259 318 -479 401 -68 25 -194 58 -264 69 -50 8 -347 14
-395 8z"/>
</g>
</svg>
